static_grf.mot
version=1
nRows=27
nColumns 19
inDegrees=yes
endheader
time	1_ground_force_vx	1_ground_force_vy	1_ground_force_vz	1_ground_force_px	1_ground_force_py	1_ground_force_pz	1_ground_torque_x	1_ground_torque_y	1_ground_torque_z	2_ground_force_vx	2_ground_force_vy	2_ground_force_vz	2_ground_force_px	2_ground_force_py	2_ground_force_pz	2_ground_torque_x	2_ground_torque_y	2_ground_torque_z
            0.493500	           -1.147354	          286.692406	          -15.138934	           -0.251388	            0.006260	           -0.414773	           -0.004979	            1.244062	           -0.065693	            0.554158	          263.830036	           17.741189	           -0.259437	            0.005486	           -0.680547	           -0.001441	           -0.686249	           -0.046147
            0.494000	           -1.193182	          287.233028	          -15.090645	           -0.251549	            0.006258	           -0.414335	           -0.005339	            1.285272	           -0.067526	            0.369252	          263.094135	           17.363216	           -0.259373	            0.005484	           -0.679974	           -0.000961	           -0.684867	           -0.045199
            0.494500	           -1.239483	          288.495241	          -15.176832	           -0.251228	            0.006257	           -0.414108	           -0.005238	            1.219155	           -0.064136	            0.509158	          263.278616	           17.410741	           -0.259562	            0.005485	           -0.680297	           -0.001374	           -0.710386	           -0.046978
            0.495000	           -1.285128	          287.413638	          -15.181356	           -0.251298	            0.006259	           -0.414446	           -0.005546	            1.240321	           -0.065514	            0.369272	          263.093968	           17.410144	           -0.259448	            0.005483	           -0.679831	           -0.000939	           -0.668662	           -0.044248
            0.495500	           -0.917653	          287.772864	          -14.859729	           -0.251348	            0.006259	           -0.414455	           -0.004096	            1.284629	           -0.066334	            0.414026	          263.647396	           17.177454	           -0.259036	            0.005486	           -0.680225	           -0.001055	           -0.671706	           -0.043764
            0.496000	           -1.238992	          287.052723	          -15.091304	           -0.251441	            0.006260	           -0.414763	           -0.005466	            1.266447	           -0.066581	            0.415478	          263.278110	           17.457709	           -0.258992	            0.005486	           -0.680225	           -0.001101	           -0.697434	           -0.046246
            0.496500	           -1.101415	          287.413084	          -15.044244	           -0.251465	            0.006260	           -0.414684	           -0.004830	            1.260341	           -0.065971	            0.275655	          263.092960	           17.597896	           -0.259368	            0.005485	           -0.680116	           -0.000729	           -0.695479	           -0.046520
            0.497000	           -1.193377	          287.053125	          -15.183130	           -0.251701	            0.006260	           -0.414775	           -0.005128	            1.233458	           -0.065241	            0.230114	          262.724616	           17.549674	           -0.259276	            0.005483	           -0.679685	           -0.000559	           -0.638745	           -0.042667
            0.497500	           -1.468306	          287.593506	          -15.088416	           -0.251707	            0.006260	           -0.414661	           -0.006349	            1.243558	           -0.065243	            0.320449	          263.646053	           17.459063	           -0.259462	            0.005484	           -0.680152	           -0.000817	           -0.672000	           -0.044501
            0.498000	           -1.193101	          287.413066	          -15.044016	           -0.251472	            0.006259	           -0.414556	           -0.005364	            1.292186	           -0.067637	            0.509822	          263.094475	           17.410084	           -0.259291	            0.005486	           -0.680333	           -0.001404	           -0.724773	           -0.047961
            0.498500	           -1.239369	          288.495045	          -15.130976	           -0.251487	            0.006257	           -0.413971	           -0.005293	            1.231979	           -0.064615	            0.553370	          264.015181	           17.460277	           -0.258771	            0.005487	           -0.680156	           -0.001500	           -0.715446	           -0.047315
            0.499000	           -1.239237	          287.773982	          -15.134068	           -0.251400	            0.006259	           -0.414435	           -0.005337	            1.239261	           -0.065173	            0.276882	          262.725455	           17.361941	           -0.259559	            0.005483	           -0.679828	           -0.000700	           -0.664253	           -0.043896
            0.499500	           -1.146803	          287.412289	          -14.860706	           -0.251281	            0.006259	           -0.414397	           -0.004976	            1.247049	           -0.064479	            0.462993	          263.094139	           17.457032	           -0.259381	            0.005484	           -0.679902	           -0.001136	           -0.645346	           -0.042821
            0.500000	           -1.284691	          288.133718	          -14.948985	           -0.251392	            0.006256	           -0.413817	           -0.005398	            1.210782	           -0.062818	            0.414875	          263.461749	           17.599150	           -0.259410	            0.005486	           -0.680474	           -0.001040	           -0.660569	           -0.044126
            0.500500	           -1.285242	          287.413835	          -15.227212	           -0.251239	            0.006260	           -0.414649	           -0.005379	            1.202951	           -0.063732	            0.413546	          263.830030	           17.600464	           -0.259584	            0.005485	           -0.680403	           -0.001055	           -0.673008	           -0.044897
            0.501000	           -1.238716	          287.412664	          -14.952190	           -0.251290	            0.006259	           -0.414477	           -0.005438	            1.261866	           -0.065647	            0.322423	          263.093799	           17.410164	           -0.259166	            0.005484	           -0.679687	           -0.000794	           -0.647551	           -0.042852
            0.501500	           -1.101089	          286.871924	          -14.954851	           -0.251433	            0.006262	           -0.415103	           -0.004898	            1.276209	           -0.066530	            0.602878	          263.278787	           17.457629	           -0.259130	            0.005485	           -0.679942	           -0.001647	           -0.719447	           -0.047705
            0.502000	           -1.010184	          287.413888	          -15.227895	           -0.251185	            0.006258	           -0.414319	           -0.004445	            1.264791	           -0.067012	            0.508493	          263.462757	           17.411398	           -0.259619	            0.005484	           -0.680261	           -0.001336	           -0.692472	           -0.045763
            0.502500	           -1.284951	          288.314407	          -15.039924	           -0.251515	            0.006257	           -0.414056	           -0.005288	            1.186407	           -0.061889	            0.414149	          263.646392	           17.459023	           -0.258955	            0.005486	           -0.680154	           -0.001095	           -0.696919	           -0.046151
            0.503000	           -1.377093	          288.315176	          -15.223120	           -0.251321	            0.006258	           -0.414151	           -0.005906	            1.236534	           -0.065289	            0.461623	          263.462755	           17.364490	           -0.259188	            0.005486	           -0.680404	           -0.001235	           -0.705065	           -0.046470
            0.503500	           -1.330564	          287.052508	          -15.045221	           -0.251523	            0.006260	           -0.414627	           -0.005806	            1.252483	           -0.065646	            0.509863	          263.094141	           17.503940	           -0.259363	            0.005485	           -0.680333	           -0.001393	           -0.719052	           -0.047839
            0.504000	           -1.284691	          288.133718	          -14.948985	           -0.251062	            0.006257	           -0.414079	           -0.005497	            1.232855	           -0.063963	            0.368670	          263.277606	           17.551585	           -0.259416	            0.005484	           -0.680082	           -0.001007	           -0.718877	           -0.047924
            0.504500	           -1.239564	          288.315203	          -15.223461	           -0.251495	            0.006257	           -0.414084	           -0.005344	            1.242877	           -0.065626	            0.368628	          263.277941	           17.457729	           -0.259295	            0.005484	           -0.679937	           -0.000881	           -0.629465	           -0.041739
            0.505000	           -1.101610	          287.233242	          -15.136728	           -0.251273	            0.006259	           -0.414603	           -0.004935	            1.286674	           -0.067806	            0.321779	          263.277772	           17.457749	           -0.259364	            0.005486	           -0.680437	           -0.000784	           -0.641668	           -0.042549
            0.505500	           -1.285766	          289.036650	          -15.311967	           -0.251456	            0.006256	           -0.413701	           -0.005503	            1.237069	           -0.065535	            0.371266	          262.541485	           17.408173	           -0.259513	            0.005482	           -0.679506	           -0.000894	           -0.632363	           -0.041930
            0.506000	           -1.284493	          287.052124	          -14.953623	           -0.251126	            0.006262	           -0.415137	           -0.005598	            1.251089	           -0.065174	            0.462993	          263.094139	           17.457032	           -0.259154	            0.005485	           -0.680118	           -0.001228	           -0.697992	           -0.046314
            0.506500	           -1.514442	          287.954422	          -15.178468	           -0.251243	            0.006256	           -0.413889	           -0.006233	            1.185188	           -0.062473	            0.461602	          263.462922	           17.317562	           -0.258903	            0.005486	           -0.680047	           -0.001226	           -0.699646	           -0.045988
